{
	"asset":{
		"generator":"Khronos glTF Blender I/O v3.6.27",
		"version":"2.0"
	},
	"extensionsUsed":[
		"KHR_materials_specular",
		"KHR_materials_ior",
		"KHR_texture_transform"
	],
	"extensionsRequired":[
		"KHR_texture_transform"
	],
	"scene":0,
	"scenes":[
		{
			"name":"Scene",
			"nodes":[
				0
			]
		}
	],
	"nodes":[
		{
			"mesh":0,
			"name":"BasketballBall",
			"scale":[
				1.0600088834762573,
				1.0600088834762573,
				1.0600088834762573
			]
		}
	],
	"materials":[
		{
			"alphaMode":"BLEND",
			"doubleSided":true,
			"extensions":{
				"KHR_materials_specular":{
					"specularColorFactor":[
						2.371357614441398,
						2.371357614441398,
						2.371357614441398
					]
				},
				"KHR_materials_ior":{
					"ior":1.4500000476837158
				}
			},
			"name":"Mat",
			"pbrMetallicRoughness":{
				"baseColorTexture":{
					"extensions":{
						"KHR_texture_transform":{
							"offset":[
								0,
								-1
							]
						}
					},
					"index":0
				},
				"metallicFactor":0,
				"roughnessFactor":0.4343145787715912
			}
		},
		{
			"doubleSided":true,
			"name":"Lines.001",
			"pbrMetallicRoughness":{
				"baseColorFactor":[
					0.027209879830479622,
					0.027209879830479622,
					0.027209879830479622,
					0
				],
				"metallicFactor":0,
				"roughnessFactor":0.690034806728363
			}
		}
	],
	"meshes":[
		{
			"name":"BasketballBall.001",
			"primitives":[
				{
					"attributes":{
						"POSITION":0,
						"NORMAL":1
					},
					"indices":2,
					"material":0
				},
				{
					"attributes":{
						"POSITION":3,
						"NORMAL":4
					},
					"indices":5,
					"material":1
				}
			]
		}
	],
	"textures":[
		{
			"sampler":0,
			"source":0
		}
	],
	"images":[
		{
			"bufferView":3,
			"mimeType":"image/png",
			"name":"ball"
		}
	],
	"accessors":[
		{
			"bufferView":0,
			"componentType":5126,
			"count":1648,
			"max":[
				0.3749364912509918,
				0.37636494636535645,
				0.3749358057975769
			],
			"min":[
				-0.3749433755874634,
				-0.37636494636535645,
				-0.3749358057975769
			],
			"type":"VEC3"
		},
		{
			"bufferView":1,
			"componentType":5126,
			"count":1648,
			"type":"VEC3"
		},
		{
			"bufferView":2,
			"componentType":5123,
			"count":3120,
			"type":"SCALAR"
		},
		{
			"bufferView":4,
			"componentType":5126,
			"count":560,
			"max":[
				0.37280577421188354,
				0.37423616647720337,
				0.37280508875846863
			],
			"min":[
				-0.3728126585483551,
				-0.37423616647720337,
				-0.37280508875846863
			],
			"type":"VEC3"
		},
		{
			"bufferView":5,
			"componentType":5126,
			"count":560,
			"type":"VEC3"
		},
		{
			"bufferView":6,
			"componentType":5123,
			"count":852,
			"type":"SCALAR"
		}
	],
	"bufferViews":[
		{
			"buffer":0,
			"byteLength":19776,
			"byteOffset":0,
			"target":34962
		},
		{
			"buffer":0,
			"byteLength":19776,
			"byteOffset":19776,
			"target":34962
		},
		{
			"buffer":0,
			"byteLength":6240,
			"byteOffset":39552,
			"target":34963
		},
		{
			"buffer":0,
			"byteLength":32064,
			"byteOffset":45792
		},
		{
			"buffer":0,
			"byteLength":6720,
			"byteOffset":77856,
			"target":34962
		},
		{
			"buffer":0,
			"byteLength":6720,
			"byteOffset":84576,
			"target":34962
		},
		{
			"buffer":0,
			"byteLength":1704,
			"byteOffset":91296,
			"target":34963
		}
	],
	"samplers":[
		{
			"magFilter":9729,
			"minFilter":9987
		}
	],
	"buffers":[
		{
			"byteLength":93000,
			"uri":"data:application/octet-stream;base64,"
		}
	]
}
