{
	"asset":{
		"generator":"Khronos glTF Blender I/O v3.6.27",
		"version":"2.0"
	},
	"scene":0,
	"scenes":[
		{
			"name":"Scene",
			"nodes":[
				9
			]
		}
	],
	"nodes":[
		{
			"name":"Bone.004",
			"rotation":[
				-0.9179937243461609,
				-0.27917686104774475,
				-0.27917686104774475,
				0.037524737417697906
			],
			"translation":[
				-2.220446049250313e-16,
				2.7160212993621826,
				-0.03275701776146889
			]
		},
		{
			"name":"Bone.002",
			"rotation":[
				-0.9179937243461609,
				0.27917686104774475,
				0.27917689085006714,
				0.037524737417697906
			],
			"translation":[
				-2.220446049250313e-16,
				2.7160212993621826,
				-0.03275701776146889
			]
		},
		{
			"name":"Bone.006",
			"translation":[
				-2.220446049250313e-16,
				1,
				-3.725290742551124e-09
			]
		},
		{
			"name":"Bone.008",
			"rotation":[
				-2.117582368135751e-22,
				5.962448312857305e-09,
				0,
				1
			],
			"translation":[
				-1.0997212029906223e-09,
				1,
				5.336795450006093e-09
			]
		},
		{
			"children":[
				3
			],
			"name":"Bone.007",
			"rotation":[
				0.5000000596046448,
				-0.5,
				0.5,
				0.5
			],
			"scale":[
				1,
				0.9999999403953552,
				1
			],
			"translation":[
				-2.220446049250313e-16,
				1,
				-3.725290742551124e-09
			]
		},
		{
			"name":"Bone.010",
			"translation":[
				-6.598266821811194e-08,
				1,
				-2.0820323243242456e-10
			]
		},
		{
			"children":[
				5
			],
			"name":"Bone.009",
			"rotation":[
				-6.883938397095335e-08,
				-6.883938397095335e-08,
				-0.7071067690849304,
				0.7071067690849304
			],
			"translation":[
				-2.220446049250313e-16,
				1,
				-3.725290742551124e-09
			]
		},
		{
			"children":[
				2,
				4,
				6
			],
			"name":"Bone.005",
			"translation":[
				-2.220446049250313e-16,
				2.7160212993621826,
				-0.03275701776146889
			]
		},
		{
			"mesh":0,
			"name":"Cube",
			"skin":0
		},
		{
			"children":[
				8,
				0,
				1,
				7
			],
			"name":"Armature",
			"rotation":[
				0,
				-1,
				0,
				4.371138828673793e-08
			],
			"scale":[
				0.09999999403953552,
				0.09999999403953552,
				0.09999999403953552
			],
			"translation":[
				0,
				-0.31711819767951965,
				0
			]
		}
	],
	"animations":[
		{
			"channels":[
				{
					"sampler":0,
					"target":{
						"node":0,
						"path":"translation"
					}
				},
				{
					"sampler":1,
					"target":{
						"node":0,
						"path":"rotation"
					}
				},
				{
					"sampler":2,
					"target":{
						"node":0,
						"path":"scale"
					}
				},
				{
					"sampler":3,
					"target":{
						"node":1,
						"path":"translation"
					}
				},
				{
					"sampler":4,
					"target":{
						"node":1,
						"path":"rotation"
					}
				},
				{
					"sampler":5,
					"target":{
						"node":1,
						"path":"scale"
					}
				},
				{
					"sampler":6,
					"target":{
						"node":7,
						"path":"translation"
					}
				},
				{
					"sampler":7,
					"target":{
						"node":7,
						"path":"rotation"
					}
				},
				{
					"sampler":8,
					"target":{
						"node":7,
						"path":"scale"
					}
				},
				{
					"sampler":9,
					"target":{
						"node":2,
						"path":"translation"
					}
				},
				{
					"sampler":10,
					"target":{
						"node":2,
						"path":"rotation"
					}
				},
				{
					"sampler":11,
					"target":{
						"node":2,
						"path":"scale"
					}
				},
				{
					"sampler":12,
					"target":{
						"node":4,
						"path":"translation"
					}
				},
				{
					"sampler":13,
					"target":{
						"node":4,
						"path":"rotation"
					}
				},
				{
					"sampler":14,
					"target":{
						"node":4,
						"path":"scale"
					}
				},
				{
					"sampler":15,
					"target":{
						"node":3,
						"path":"translation"
					}
				},
				{
					"sampler":16,
					"target":{
						"node":3,
						"path":"rotation"
					}
				},
				{
					"sampler":17,
					"target":{
						"node":3,
						"path":"scale"
					}
				},
				{
					"sampler":18,
					"target":{
						"node":6,
						"path":"translation"
					}
				},
				{
					"sampler":19,
					"target":{
						"node":6,
						"path":"rotation"
					}
				},
				{
					"sampler":20,
					"target":{
						"node":6,
						"path":"scale"
					}
				},
				{
					"sampler":21,
					"target":{
						"node":5,
						"path":"translation"
					}
				},
				{
					"sampler":22,
					"target":{
						"node":5,
						"path":"rotation"
					}
				},
				{
					"sampler":23,
					"target":{
						"node":5,
						"path":"scale"
					}
				}
			],
			"name":"idle",
			"samplers":[
				{
					"input":7,
					"interpolation":"STEP",
					"output":8
				},
				{
					"input":7,
					"interpolation":"STEP",
					"output":9
				},
				{
					"input":7,
					"interpolation":"STEP",
					"output":10
				},
				{
					"input":7,
					"interpolation":"STEP",
					"output":11
				},
				{
					"input":7,
					"interpolation":"STEP",
					"output":12
				},
				{
					"input":7,
					"interpolation":"STEP",
					"output":13
				},
				{
					"input":14,
					"interpolation":"LINEAR",
					"output":15
				},
				{
					"input":14,
					"interpolation":"LINEAR",
					"output":16
				},
				{
					"input":7,
					"interpolation":"STEP",
					"output":17
				},
				{
					"input":7,
					"interpolation":"STEP",
					"output":18
				},
				{
					"input":7,
					"interpolation":"STEP",
					"output":19
				},
				{
					"input":7,
					"interpolation":"STEP",
					"output":20
				},
				{
					"input":7,
					"interpolation":"STEP",
					"output":21
				},
				{
					"input":7,
					"interpolation":"STEP",
					"output":22
				},
				{
					"input":7,
					"interpolation":"STEP",
					"output":23
				},
				{
					"input":7,
					"interpolation":"STEP",
					"output":24
				},
				{
					"input":7,
					"interpolation":"STEP",
					"output":25
				},
				{
					"input":7,
					"interpolation":"STEP",
					"output":26
				},
				{
					"input":7,
					"interpolation":"STEP",
					"output":27
				},
				{
					"input":7,
					"interpolation":"STEP",
					"output":28
				},
				{
					"input":7,
					"interpolation":"STEP",
					"output":29
				},
				{
					"input":7,
					"interpolation":"STEP",
					"output":30
				},
				{
					"input":7,
					"interpolation":"STEP",
					"output":31
				},
				{
					"input":7,
					"interpolation":"STEP",
					"output":32
				}
			]
		},
		{
			"channels":[
				{
					"sampler":0,
					"target":{
						"node":0,
						"path":"translation"
					}
				},
				{
					"sampler":1,
					"target":{
						"node":0,
						"path":"rotation"
					}
				},
				{
					"sampler":2,
					"target":{
						"node":0,
						"path":"scale"
					}
				},
				{
					"sampler":3,
					"target":{
						"node":1,
						"path":"translation"
					}
				},
				{
					"sampler":4,
					"target":{
						"node":1,
						"path":"rotation"
					}
				},
				{
					"sampler":5,
					"target":{
						"node":1,
						"path":"scale"
					}
				},
				{
					"sampler":6,
					"target":{
						"node":7,
						"path":"translation"
					}
				},
				{
					"sampler":7,
					"target":{
						"node":7,
						"path":"rotation"
					}
				},
				{
					"sampler":8,
					"target":{
						"node":7,
						"path":"scale"
					}
				},
				{
					"sampler":9,
					"target":{
						"node":2,
						"path":"translation"
					}
				},
				{
					"sampler":10,
					"target":{
						"node":2,
						"path":"rotation"
					}
				},
				{
					"sampler":11,
					"target":{
						"node":2,
						"path":"scale"
					}
				},
				{
					"sampler":12,
					"target":{
						"node":4,
						"path":"translation"
					}
				},
				{
					"sampler":13,
					"target":{
						"node":4,
						"path":"rotation"
					}
				},
				{
					"sampler":14,
					"target":{
						"node":4,
						"path":"scale"
					}
				},
				{
					"sampler":15,
					"target":{
						"node":3,
						"path":"translation"
					}
				},
				{
					"sampler":16,
					"target":{
						"node":3,
						"path":"rotation"
					}
				},
				{
					"sampler":17,
					"target":{
						"node":3,
						"path":"scale"
					}
				},
				{
					"sampler":18,
					"target":{
						"node":6,
						"path":"translation"
					}
				},
				{
					"sampler":19,
					"target":{
						"node":6,
						"path":"rotation"
					}
				},
				{
					"sampler":20,
					"target":{
						"node":6,
						"path":"scale"
					}
				},
				{
					"sampler":21,
					"target":{
						"node":5,
						"path":"translation"
					}
				},
				{
					"sampler":22,
					"target":{
						"node":5,
						"path":"rotation"
					}
				},
				{
					"sampler":23,
					"target":{
						"node":5,
						"path":"scale"
					}
				}
			],
			"name":"walk",
			"samplers":[
				{
					"input":33,
					"interpolation":"LINEAR",
					"output":34
				},
				{
					"input":33,
					"interpolation":"LINEAR",
					"output":35
				},
				{
					"input":36,
					"interpolation":"STEP",
					"output":37
				},
				{
					"input":33,
					"interpolation":"LINEAR",
					"output":38
				},
				{
					"input":33,
					"interpolation":"LINEAR",
					"output":39
				},
				{
					"input":36,
					"interpolation":"STEP",
					"output":40
				},
				{
					"input":36,
					"interpolation":"STEP",
					"output":41
				},
				{
					"input":36,
					"interpolation":"STEP",
					"output":42
				},
				{
					"input":36,
					"interpolation":"STEP",
					"output":43
				},
				{
					"input":36,
					"interpolation":"STEP",
					"output":44
				},
				{
					"input":36,
					"interpolation":"STEP",
					"output":45
				},
				{
					"input":36,
					"interpolation":"STEP",
					"output":46
				},
				{
					"input":36,
					"interpolation":"STEP",
					"output":47
				},
				{
					"input":36,
					"interpolation":"STEP",
					"output":48
				},
				{
					"input":36,
					"interpolation":"STEP",
					"output":49
				},
				{
					"input":36,
					"interpolation":"STEP",
					"output":50
				},
				{
					"input":36,
					"interpolation":"STEP",
					"output":51
				},
				{
					"input":36,
					"interpolation":"STEP",
					"output":52
				},
				{
					"input":36,
					"interpolation":"STEP",
					"output":53
				},
				{
					"input":36,
					"interpolation":"STEP",
					"output":54
				},
				{
					"input":36,
					"interpolation":"STEP",
					"output":55
				},
				{
					"input":36,
					"interpolation":"STEP",
					"output":56
				},
				{
					"input":36,
					"interpolation":"STEP",
					"output":57
				},
				{
					"input":36,
					"interpolation":"STEP",
					"output":58
				}
			]
		}
	],
	"materials":[
		{
			"doubleSided":true,
			"name":"Material",
			"pbrMetallicRoughness":{
				"baseColorTexture":{
					"index":0
				},
				"metallicFactor":0,
				"roughnessFactor":0.4000000059604645
			}
		}
	],
	"meshes":[
		{
			"name":"Cube.002",
			"primitives":[
				{
					"attributes":{
						"POSITION":0,
						"NORMAL":1,
						"TEXCOORD_0":2,
						"JOINTS_0":3,
						"WEIGHTS_0":4
					},
					"indices":5,
					"material":0
				}
			]
		}
	],
	"textures":[
		{
			"sampler":0,
			"source":0
		}
	],
	"images":[
		{
			"bufferView":6,
			"mimeType":"image/png",
			"name":"character"
		}
	],
	"skins":[
		{
			"inverseBindMatrices":6,
			"joints":[
				0,
				1,
				7,
				2,
				4,
				3,
				6,
				5
			],
			"name":"Armature"
		}
	],
	"accessors":[
		{
			"bufferView":0,
			"componentType":5126,
			"count":188,
			"max":[
				0.41359004378318787,
				0.2802337110042572,
				0.09032264351844788
			],
			"min":[
				-0.41359004378318787,
				-0.2992153763771057,
				-0.10967747867107391
			],
			"type":"VEC3"
		},
		{
			"bufferView":1,
			"componentType":5126,
			"count":188,
			"type":"VEC3"
		},
		{
			"bufferView":2,
			"componentType":5126,
			"count":188,
			"type":"VEC2"
		},
		{
			"bufferView":3,
			"componentType":5121,
			"count":188,
			"type":"VEC4"
		},
		{
			"bufferView":4,
			"componentType":5126,
			"count":188,
			"type":"VEC4"
		},
		{
			"bufferView":5,
			"componentType":5123,
			"count":384,
			"type":"SCALAR"
		},
		{
			"bufferView":7,
			"componentType":5126,
			"count":8,
			"type":"MAT4"
		},
		{
			"bufferView":8,
			"componentType":5126,
			"count":2,
			"max":[
				1.6666666666666667
			],
			"min":[
				0.041666666666666664
			],
			"type":"SCALAR"
		},
		{
			"bufferView":9,
			"componentType":5126,
			"count":2,
			"type":"VEC3"
		},
		{
			"bufferView":10,
			"componentType":5126,
			"count":2,
			"type":"VEC4"
		},
		{
			"bufferView":11,
			"componentType":5126,
			"count":2,
			"type":"VEC3"
		},
		{
			"bufferView":12,
			"componentType":5126,
			"count":2,
			"type":"VEC3"
		},
		{
			"bufferView":13,
			"componentType":5126,
			"count":2,
			"type":"VEC4"
		},
		{
			"bufferView":14,
			"componentType":5126,
			"count":2,
			"type":"VEC3"
		},
		{
			"bufferView":15,
			"componentType":5126,
			"count":40,
			"max":[
				1.6666666666666667
			],
			"min":[
				0.041666666666666664
			],
			"type":"SCALAR"
		},
		{
			"bufferView":16,
			"componentType":5126,
			"count":40,
			"type":"VEC3"
		},
		{
			"bufferView":17,
			"componentType":5126,
			"count":40,
			"type":"VEC4"
		},
		{
			"bufferView":18,
			"componentType":5126,
			"count":2,
			"type":"VEC3"
		},
		{
			"bufferView":19,
			"componentType":5126,
			"count":2,
			"type":"VEC3"
		},
		{
			"bufferView":20,
			"componentType":5126,
			"count":2,
			"type":"VEC4"
		},
		{
			"bufferView":21,
			"componentType":5126,
			"count":2,
			"type":"VEC3"
		},
		{
			"bufferView":22,
			"componentType":5126,
			"count":2,
			"type":"VEC3"
		},
		{
			"bufferView":23,
			"componentType":5126,
			"count":2,
			"type":"VEC4"
		},
		{
			"bufferView":24,
			"componentType":5126,
			"count":2,
			"type":"VEC3"
		},
		{
			"bufferView":25,
			"componentType":5126,
			"count":2,
			"type":"VEC3"
		},
		{
			"bufferView":26,
			"componentType":5126,
			"count":2,
			"type":"VEC4"
		},
		{
			"bufferView":27,
			"componentType":5126,
			"count":2,
			"type":"VEC3"
		},
		{
			"bufferView":28,
			"componentType":5126,
			"count":2,
			"type":"VEC3"
		},
		{
			"bufferView":29,
			"componentType":5126,
			"count":2,
			"type":"VEC4"
		},
		{
			"bufferView":30,
			"componentType":5126,
			"count":2,
			"type":"VEC3"
		},
		{
			"bufferView":31,
			"componentType":5126,
			"count":2,
			"type":"VEC3"
		},
		{
			"bufferView":32,
			"componentType":5126,
			"count":2,
			"type":"VEC4"
		},
		{
			"bufferView":33,
			"componentType":5126,
			"count":2,
			"type":"VEC3"
		},
		{
			"bufferView":34,
			"componentType":5126,
			"count":160,
			"max":[
				6.666666666666667
			],
			"min":[
				0.041666666666666664
			],
			"type":"SCALAR"
		},
		{
			"bufferView":35,
			"componentType":5126,
			"count":160,
			"type":"VEC3"
		},
		{
			"bufferView":36,
			"componentType":5126,
			"count":160,
			"type":"VEC4"
		},
		{
			"bufferView":37,
			"componentType":5126,
			"count":2,
			"max":[
				6.666666666666667
			],
			"min":[
				0.041666666666666664
			],
			"type":"SCALAR"
		},
		{
			"bufferView":38,
			"componentType":5126,
			"count":2,
			"type":"VEC3"
		},
		{
			"bufferView":39,
			"componentType":5126,
			"count":160,
			"type":"VEC3"
		},
		{
			"bufferView":40,
			"componentType":5126,
			"count":160,
			"type":"VEC4"
		},
		{
			"bufferView":41,
			"componentType":5126,
			"count":2,
			"type":"VEC3"
		},
		{
			"bufferView":42,
			"componentType":5126,
			"count":2,
			"type":"VEC3"
		},
		{
			"bufferView":43,
			"componentType":5126,
			"count":2,
			"type":"VEC4"
		},
		{
			"bufferView":44,
			"componentType":5126,
			"count":2,
			"type":"VEC3"
		},
		{
			"bufferView":45,
			"componentType":5126,
			"count":2,
			"type":"VEC3"
		},
		{
			"bufferView":46,
			"componentType":5126,
			"count":2,
			"type":"VEC4"
		},
		{
			"bufferView":47,
			"componentType":5126,
			"count":2,
			"type":"VEC3"
		},
		{
			"bufferView":48,
			"componentType":5126,
			"count":2,
			"type":"VEC3"
		},
		{
			"bufferView":49,
			"componentType":5126,
			"count":2,
			"type":"VEC4"
		},
		{
			"bufferView":50,
			"componentType":5126,
			"count":2,
			"type":"VEC3"
		},
		{
			"bufferView":51,
			"componentType":5126,
			"count":2,
			"type":"VEC3"
		},
		{
			"bufferView":52,
			"componentType":5126,
			"count":2,
			"type":"VEC4"
		},
		{
			"bufferView":53,
			"componentType":5126,
			"count":2,
			"type":"VEC3"
		},
		{
			"bufferView":54,
			"componentType":5126,
			"count":2,
			"type":"VEC3"
		},
		{
			"bufferView":55,
			"componentType":5126,
			"count":2,
			"type":"VEC4"
		},
		{
			"bufferView":56,
			"componentType":5126,
			"count":2,
			"type":"VEC3"
		},
		{
			"bufferView":57,
			"componentType":5126,
			"count":2,
			"type":"VEC3"
		},
		{
			"bufferView":58,
			"componentType":5126,
			"count":2,
			"type":"VEC4"
		},
		{
			"bufferView":59,
			"componentType":5126,
			"count":2,
			"type":"VEC3"
		}
	],
	"bufferViews":[
		{
			"buffer":0,
			"byteLength":2256,
			"byteOffset":0,
			"target":34962
		},
		{
			"buffer":0,
			"byteLength":2256,
			"byteOffset":2256,
			"target":34962
		},
		{
			"buffer":0,
			"byteLength":1504,
			"byteOffset":4512,
			"target":34962
		},
		{
			"buffer":0,
			"byteLength":752,
			"byteOffset":6016,
			"target":34962
		},
		{
			"buffer":0,
			"byteLength":3008,
			"byteOffset":6768,
			"target":34962
		},
		{
			"buffer":0,
			"byteLength":768,
			"byteOffset":9776,
			"target":34963
		},
		{
			"buffer":0,
			"byteLength":99977,
			"byteOffset":10544
		},
		{
			"buffer":0,
			"byteLength":512,
			"byteOffset":110524
		},
		{
			"buffer":0,
			"byteLength":8,
			"byteOffset":111036
		},
		{
			"buffer":0,
			"byteLength":24,
			"byteOffset":111044
		},
		{
			"buffer":0,
			"byteLength":32,
			"byteOffset":111068
		},
		{
			"buffer":0,
			"byteLength":24,
			"byteOffset":111100
		},
		{
			"buffer":0,
			"byteLength":24,
			"byteOffset":111124
		},
		{
			"buffer":0,
			"byteLength":32,
			"byteOffset":111148
		},
		{
			"buffer":0,
			"byteLength":24,
			"byteOffset":111180
		},
		{
			"buffer":0,
			"byteLength":160,
			"byteOffset":111204
		},
		{
			"buffer":0,
			"byteLength":480,
			"byteOffset":111364
		},
		{
			"buffer":0,
			"byteLength":640,
			"byteOffset":111844
		},
		{
			"buffer":0,
			"byteLength":24,
			"byteOffset":112484
		},
		{
			"buffer":0,
			"byteLength":24,
			"byteOffset":112508
		},
		{
			"buffer":0,
			"byteLength":32,
			"byteOffset":112532
		},
		{
			"buffer":0,
			"byteLength":24,
			"byteOffset":112564
		},
		{
			"buffer":0,
			"byteLength":24,
			"byteOffset":112588
		},
		{
			"buffer":0,
			"byteLength":32,
			"byteOffset":112612
		},
		{
			"buffer":0,
			"byteLength":24,
			"byteOffset":112644
		},
		{
			"buffer":0,
			"byteLength":24,
			"byteOffset":112668
		},
		{
			"buffer":0,
			"byteLength":32,
			"byteOffset":112692
		},
		{
			"buffer":0,
			"byteLength":24,
			"byteOffset":112724
		},
		{
			"buffer":0,
			"byteLength":24,
			"byteOffset":112748
		},
		{
			"buffer":0,
			"byteLength":32,
			"byteOffset":112772
		},
		{
			"buffer":0,
			"byteLength":24,
			"byteOffset":112804
		},
		{
			"buffer":0,
			"byteLength":24,
			"byteOffset":112828
		},
		{
			"buffer":0,
			"byteLength":32,
			"byteOffset":112852
		},
		{
			"buffer":0,
			"byteLength":24,
			"byteOffset":112884
		},
		{
			"buffer":0,
			"byteLength":640,
			"byteOffset":112908
		},
		{
			"buffer":0,
			"byteLength":1920,
			"byteOffset":113548
		},
		{
			"buffer":0,
			"byteLength":2560,
			"byteOffset":115468
		},
		{
			"buffer":0,
			"byteLength":8,
			"byteOffset":118028
		},
		{
			"buffer":0,
			"byteLength":24,
			"byteOffset":118036
		},
		{
			"buffer":0,
			"byteLength":1920,
			"byteOffset":118060
		},
		{
			"buffer":0,
			"byteLength":2560,
			"byteOffset":119980
		},
		{
			"buffer":0,
			"byteLength":24,
			"byteOffset":122540
		},
		{
			"buffer":0,
			"byteLength":24,
			"byteOffset":122564
		},
		{
			"buffer":0,
			"byteLength":32,
			"byteOffset":122588
		},
		{
			"buffer":0,
			"byteLength":24,
			"byteOffset":122620
		},
		{
			"buffer":0,
			"byteLength":24,
			"byteOffset":122644
		},
		{
			"buffer":0,
			"byteLength":32,
			"byteOffset":122668
		},
		{
			"buffer":0,
			"byteLength":24,
			"byteOffset":122700
		},
		{
			"buffer":0,
			"byteLength":24,
			"byteOffset":122724
		},
		{
			"buffer":0,
			"byteLength":32,
			"byteOffset":122748
		},
		{
			"buffer":0,
			"byteLength":24,
			"byteOffset":122780
		},
		{
			"buffer":0,
			"byteLength":24,
			"byteOffset":122804
		},
		{
			"buffer":0,
			"byteLength":32,
			"byteOffset":122828
		},
		{
			"buffer":0,
			"byteLength":24,
			"byteOffset":122860
		},
		{
			"buffer":0,
			"byteLength":24,
			"byteOffset":122884
		},
		{
			"buffer":0,
			"byteLength":32,
			"byteOffset":122908
		},
		{
			"buffer":0,
			"byteLength":24,
			"byteOffset":122940
		},
		{
			"buffer":0,
			"byteLength":24,
			"byteOffset":122964
		},
		{
			"buffer":0,
			"byteLength":32,
			"byteOffset":122988
		},
		{
			"buffer":0,
			"byteLength":24,
			"byteOffset":123020
		}
	],
	"samplers":[
		{
			"magFilter":9729,
			"minFilter":9987
		}
	],
	"buffers":[
		{
			"byteLength":123044,
			"uri":"data:application/octet-stream;base64,"
		}
	]
}
