{
	"asset":{
		"generator":"Khronos glTF Blender I/O v3.6.27",
		"version":"2.0"
	},
	"extensionsUsed":[
		"KHR_materials_specular",
		"KHR_materials_ior"
	],
	"scene":0,
	"scenes":[
		{
			"name":"Scene",
			"nodes":[
				0,
				1,
				2
			]
		}
	],
	"nodes":[
		{
			"mesh":0,
			"name":"Basket",
			"rotation":[
				0.70710688829422,
				0,
				0,
				0.7071066498756409
			],
			"scale":[
				0.009999990463256836,
				0.009999990463256836,
				0.009999990463256836
			],
			"translation":[
				0.018912017345428467,
				3.3245527744293213,
				0
			]
		},
		{
			"mesh":1,
			"name":"Pota",
			"rotation":[
				0.70710688829422,
				0,
				0,
				0.7071066498756409
			],
			"scale":[
				0.009999990463256836,
				0.009999990463256836,
				0.009999990463256836
			],
			"translation":[
				0.018912017345428467,
				3.3245527744293213,
				0
			]
		},
		{
			"mesh":2,
			"name":"Pota-Arkasi",
			"rotation":[
				0.70710688829422,
				0,
				0,
				0.7071066498756409
			],
			"scale":[
				0.009999990463256836,
				0.009999990463256836,
				0.009999990463256836
			],
			"translation":[
				0.018912017345428467,
				3.3245527744293213,
				0
			]
		}
	],
	"materials":[
		{
			"doubleSided":true,
			"extensions":{
				"KHR_materials_specular":{
					"specularColorFactor":[
						2.371357614441398,
						2.371357614441398,
						2.371357614441398
					]
				},
				"KHR_materials_ior":{
					"ior":1.4500000476837158
				}
			},
			"name":"Mat.003",
			"pbrMetallicRoughness":{
				"baseColorFactor":[
					0.800000011920929,
					0.14266666769981384,
					0.11999999731779099,
					0.19999998807907104
				],
				"metallicFactor":0,
				"roughnessFactor":0.4343145787715912
			}
		},
		{
			"doubleSided":true,
			"extensions":{
				"KHR_materials_specular":{
					"specularColorFactor":[
						2.371357614441398,
						2.371357614441398,
						2.371357614441398
					]
				},
				"KHR_materials_ior":{
					"ior":1.4500000476837158
				}
			},
			"name":"Mat.004",
			"pbrMetallicRoughness":{
				"baseColorFactor":[
					0.800000011920929,
					0.800000011920929,
					0.800000011920929,
					0.19999998807907104
				],
				"metallicFactor":0,
				"roughnessFactor":0.4343145787715912
			}
		}
	],
	"meshes":[
		{
			"name":"Untitled.001",
			"primitives":[
				{
					"attributes":{
						"POSITION":0,
						"NORMAL":1,
						"TEXCOORD_0":2
					},
					"indices":3,
					"material":0
				}
			]
		},
		{
			"name":"Untitled.002",
			"primitives":[
				{
					"attributes":{
						"POSITION":4,
						"NORMAL":5,
						"TEXCOORD_0":6
					},
					"indices":7,
					"material":0
				}
			]
		},
		{
			"name":"Untitled.003",
			"primitives":[
				{
					"attributes":{
						"POSITION":8,
						"NORMAL":9,
						"TEXCOORD_0":10
					},
					"indices":11,
					"material":0
				},
				{
					"attributes":{
						"POSITION":12,
						"NORMAL":13,
						"TEXCOORD_0":14
					},
					"indices":15,
					"material":1
				}
			]
		}
	],
	"accessors":[
		{
			"bufferView":0,
			"componentType":5126,
			"count":631,
			"max":[
				172.75296020507812,
				29.860000610351562,
				370.65740966796875
			],
			"min":[
				60.13984680175781,
				-29.860000610351562,
				-278.73553466796875
			],
			"type":"VEC3"
		},
		{
			"bufferView":1,
			"componentType":5126,
			"count":631,
			"type":"VEC3"
		},
		{
			"bufferView":2,
			"componentType":5126,
			"count":631,
			"type":"VEC2"
		},
		{
			"bufferView":3,
			"componentType":5123,
			"count":2994,
			"type":"SCALAR"
		},
		{
			"bufferView":4,
			"componentType":5126,
			"count":809,
			"max":[
				-18.874773025512695,
				75,
				-163.9676971435547
			],
			"min":[
				-172.75296020507812,
				-75,
				-183.66384887695312
			],
			"type":"VEC3"
		},
		{
			"bufferView":5,
			"componentType":5126,
			"count":809,
			"type":"VEC3"
		},
		{
			"bufferView":6,
			"componentType":5126,
			"count":809,
			"type":"VEC2"
		},
		{
			"bufferView":7,
			"componentType":5123,
			"count":4302,
			"type":"SCALAR"
		},
		{
			"bufferView":8,
			"componentType":5126,
			"count":1683,
			"max":[
				63.626075744628906,
				185.7054443359375,
				-131.985107421875
			],
			"min":[
				-24.89829444885254,
				-185.7054443359375,
				-370.65740966796875
			],
			"type":"VEC3"
		},
		{
			"bufferView":9,
			"componentType":5126,
			"count":1683,
			"type":"VEC3"
		},
		{
			"bufferView":10,
			"componentType":5126,
			"count":1683,
			"type":"VEC2"
		},
		{
			"bufferView":11,
			"componentType":5123,
			"count":3198,
			"type":"SCALAR"
		},
		{
			"bufferView":12,
			"componentType":5126,
			"count":432,
			"max":[
				45.42017364501953,
				176.5451202392578,
				-137.24867248535156
			],
			"min":[
				-1.9769870042800903,
				-176.5451202392578,
				-360.7215881347656
			],
			"type":"VEC3"
		},
		{
			"bufferView":13,
			"componentType":5126,
			"count":432,
			"type":"VEC3"
		},
		{
			"bufferView":14,
			"componentType":5126,
			"count":432,
			"type":"VEC2"
		},
		{
			"bufferView":15,
			"componentType":5123,
			"count":612,
			"type":"SCALAR"
		}
	],
	"bufferViews":[
		{
			"buffer":0,
			"byteLength":7572,
			"byteOffset":0,
			"target":34962
		},
		{
			"buffer":0,
			"byteLength":7572,
			"byteOffset":7572,
			"target":34962
		},
		{
			"buffer":0,
			"byteLength":5048,
			"byteOffset":15144,
			"target":34962
		},
		{
			"buffer":0,
			"byteLength":5988,
			"byteOffset":20192,
			"target":34963
		},
		{
			"buffer":0,
			"byteLength":9708,
			"byteOffset":26180,
			"target":34962
		},
		{
			"buffer":0,
			"byteLength":9708,
			"byteOffset":35888,
			"target":34962
		},
		{
			"buffer":0,
			"byteLength":6472,
			"byteOffset":45596,
			"target":34962
		},
		{
			"buffer":0,
			"byteLength":8604,
			"byteOffset":52068,
			"target":34963
		},
		{
			"buffer":0,
			"byteLength":20196,
			"byteOffset":60672,
			"target":34962
		},
		{
			"buffer":0,
			"byteLength":20196,
			"byteOffset":80868,
			"target":34962
		},
		{
			"buffer":0,
			"byteLength":13464,
			"byteOffset":101064,
			"target":34962
		},
		{
			"buffer":0,
			"byteLength":6396,
			"byteOffset":114528,
			"target":34963
		},
		{
			"buffer":0,
			"byteLength":5184,
			"byteOffset":120924,
			"target":34962
		},
		{
			"buffer":0,
			"byteLength":5184,
			"byteOffset":126108,
			"target":34962
		},
		{
			"buffer":0,
			"byteLength":3456,
			"byteOffset":131292,
			"target":34962
		},
		{
			"buffer":0,
			"byteLength":1224,
			"byteOffset":134748,
			"target":34963
		}
	],
	"buffers":[
		{
			"byteLength":135972,
			"uri":"data:application/octet-stream;base64,"
		}
	]
}
