{
	"asset":{
		"generator":"Khronos glTF Blender I/O v3.6.27",
		"version":"2.0"
	},
	"extensionsUsed":[
		"KHR_materials_specular",
		"KHR_materials_ior"
	],
	"scene":0,
	"scenes":[
		{
			"name":"Scene",
			"nodes":[
				1,
				2,
				3
			]
		}
	],
	"nodes":[
		{
			"mesh":0,
			"name":"Ground",
			"translation":[
				505.2063903808594,
				-759.0350952148438,
				-5.829847214045003e-05
			]
		},
		{
			"children":[
				0
			],
			"mesh":1,
			"name":"ground",
			"rotation":[
				0.5,
				0.5,
				-0.5,
				0.5000000596046448
			],
			"scale":[
				0.007815249264240265,
				0.007815249264240265,
				0.007815249264240265
			],
			"translation":[
				-0.30022403597831726,
				-0.23542070388793945,
				4.112930774688721
			]
		},
		{
			"mesh":2,
			"name":"pota",
			"rotation":[
				0.70710688829422,
				0,
				0,
				0.7071066498756409
			],
			"scale":[
				0.002532044192776084,
				0.002532044192776084,
				0.002532044192776084
			],
			"translation":[
				-0.9104050397872925,
				0.5093801021575928,
				-0.014552891254425049
			]
		},
		{
			"mesh":3,
			"name":"baseball",
			"rotation":[
				0.7071068286895752,
				0,
				0,
				0.7071068286895752
			],
			"scale":[
				0.0013379030860960484,
				0.0013379030860960484,
				0.0013379030860960484
			],
			"translation":[
				-1.155597448348999,
				0.5967068672180176,
				-0.01998072862625122
			]
		}
	],
	"materials":[
		{
			"doubleSided":true,
			"extensions":{
				"KHR_materials_specular":{
					"specularColorFactor":[
						2.371357614441398,
						2.371357614441398,
						2.371357614441398
					]
				},
				"KHR_materials_ior":{
					"ior":1.4500000476837158
				}
			},
			"name":"Mat.1",
			"pbrMetallicRoughness":{
				"baseColorFactor":[
					0.800000011920929,
					0.5685333609580994,
					0.35199999809265137,
					1
				],
				"metallicFactor":0,
				"roughnessFactor":0.4343145787715912
			}
		},
		{
			"doubleSided":true,
			"extensions":{
				"KHR_materials_specular":{
					"specularColorFactor":[
						2.371357614441398,
						2.371357614441398,
						2.371357614441398
					]
				},
				"KHR_materials_ior":{
					"ior":1.4500000476837158
				}
			},
			"name":"Mat.002",
			"pbrMetallicRoughness":{
				"baseColorFactor":[
					0.800000011920929,
					0.800000011920929,
					0.800000011920929,
					1
				],
				"metallicFactor":0,
				"roughnessFactor":0.4343145787715912
			}
		},
		{
			"doubleSided":true,
			"extensions":{
				"KHR_materials_specular":{
					"specularColorFactor":[
						2.371357614441398,
						2.371357614441398,
						2.371357614441398
					]
				},
				"KHR_materials_ior":{
					"ior":1.4500000476837158
				}
			},
			"name":"Mat.003",
			"pbrMetallicRoughness":{
				"baseColorFactor":[
					0.800000011920929,
					0.14266666769981384,
					0.11999999731779099,
					0.19999998807907104
				],
				"metallicFactor":0,
				"roughnessFactor":0.4343145787715912
			}
		},
		{
			"doubleSided":true,
			"extensions":{
				"KHR_materials_specular":{
					"specularColorFactor":[
						2.371357614441398,
						2.371357614441398,
						2.371357614441398
					]
				},
				"KHR_materials_ior":{
					"ior":1.4500000476837158
				}
			},
			"name":"Mat.004",
			"pbrMetallicRoughness":{
				"baseColorFactor":[
					0.800000011920929,
					0.800000011920929,
					0.800000011920929,
					0.19999998807907104
				],
				"metallicFactor":0,
				"roughnessFactor":0.4343145787715912
			}
		}
	],
	"meshes":[
		{
			"name":"Mesh.001",
			"primitives":[
				{
					"attributes":{
						"POSITION":0,
						"NORMAL":1,
						"TEXCOORD_0":2
					},
					"indices":3,
					"material":0
				}
			]
		},
		{
			"name":"Mesh.002",
			"primitives":[
				{
					"attributes":{
						"POSITION":4,
						"NORMAL":5,
						"TEXCOORD_0":6
					},
					"indices":7,
					"material":1
				}
			]
		},
		{
			"name":"Untitled.003",
			"primitives":[
				{
					"attributes":{
						"POSITION":8,
						"NORMAL":9,
						"TEXCOORD_0":10
					},
					"indices":11,
					"material":2
				},
				{
					"attributes":{
						"POSITION":12,
						"NORMAL":13,
						"TEXCOORD_0":14
					},
					"indices":15,
					"material":3
				}
			]
		},
		{
			"name":"Mesh.003",
			"primitives":[
				{
					"attributes":{
						"POSITION":16,
						"NORMAL":17,
						"TEXCOORD_0":18
					},
					"indices":19
				}
			]
		}
	],
	"accessors":[
		{
			"bufferView":0,
			"componentType":5126,
			"count":20,
			"max":[
				500,
				750,
				5
			],
			"min":[
				-500,
				-750,
				-5
			],
			"type":"VEC3"
		},
		{
			"bufferView":1,
			"componentType":5126,
			"count":20,
			"type":"VEC3"
		},
		{
			"bufferView":2,
			"componentType":5126,
			"count":20,
			"type":"VEC2"
		},
		{
			"bufferView":3,
			"componentType":5123,
			"count":30,
			"type":"SCALAR"
		},
		{
			"bufferView":4,
			"componentType":5126,
			"count":52,
			"max":[
				1012.5,
				12.50000286102295,
				5.247714996337891
			],
			"min":[
				-12.5,
				-1512.5,
				-153.26083374023438
			],
			"type":"VEC3"
		},
		{
			"bufferView":5,
			"componentType":5126,
			"count":52,
			"type":"VEC3"
		},
		{
			"bufferView":6,
			"componentType":5126,
			"count":52,
			"type":"VEC2"
		},
		{
			"bufferView":7,
			"componentType":5123,
			"count":96,
			"type":"SCALAR"
		},
		{
			"bufferView":8,
			"componentType":5126,
			"count":3123,
			"max":[
				172.75296020507812,
				185.7054443359375,
				370.6573791503906
			],
			"min":[
				-172.75291442871094,
				-185.7054443359375,
				-370.65740966796875
			],
			"type":"VEC3"
		},
		{
			"bufferView":9,
			"componentType":5126,
			"count":3123,
			"type":"VEC3"
		},
		{
			"bufferView":10,
			"componentType":5126,
			"count":3123,
			"type":"VEC2"
		},
		{
			"bufferView":11,
			"componentType":5123,
			"count":10494,
			"type":"SCALAR"
		},
		{
			"bufferView":12,
			"componentType":5126,
			"count":432,
			"max":[
				45.42017364501953,
				176.5451202392578,
				-137.24867248535156
			],
			"min":[
				-1.9769870042800903,
				-176.5451202392578,
				-360.7215881347656
			],
			"type":"VEC3"
		},
		{
			"bufferView":13,
			"componentType":5126,
			"count":432,
			"type":"VEC3"
		},
		{
			"bufferView":14,
			"componentType":5126,
			"count":432,
			"type":"VEC2"
		},
		{
			"bufferView":15,
			"componentType":5123,
			"count":612,
			"type":"SCALAR"
		},
		{
			"bufferView":16,
			"componentType":5126,
			"count":559,
			"max":[
				81.19718170166016,
				81.19720458984375,
				79.71844482421875
			],
			"min":[
				-81.19722747802734,
				-81.19720458984375,
				-82.67596435546875
			],
			"type":"VEC3"
		},
		{
			"bufferView":17,
			"componentType":5126,
			"count":559,
			"type":"VEC3"
		},
		{
			"bufferView":18,
			"componentType":5126,
			"count":559,
			"type":"VEC2"
		},
		{
			"bufferView":19,
			"componentType":5123,
			"count":2880,
			"type":"SCALAR"
		}
	],
	"bufferViews":[
		{
			"buffer":0,
			"byteLength":240,
			"byteOffset":0,
			"target":34962
		},
		{
			"buffer":0,
			"byteLength":240,
			"byteOffset":240,
			"target":34962
		},
		{
			"buffer":0,
			"byteLength":160,
			"byteOffset":480,
			"target":34962
		},
		{
			"buffer":0,
			"byteLength":60,
			"byteOffset":640,
			"target":34963
		},
		{
			"buffer":0,
			"byteLength":624,
			"byteOffset":700,
			"target":34962
		},
		{
			"buffer":0,
			"byteLength":624,
			"byteOffset":1324,
			"target":34962
		},
		{
			"buffer":0,
			"byteLength":416,
			"byteOffset":1948,
			"target":34962
		},
		{
			"buffer":0,
			"byteLength":192,
			"byteOffset":2364,
			"target":34963
		},
		{
			"buffer":0,
			"byteLength":37476,
			"byteOffset":2556,
			"target":34962
		},
		{
			"buffer":0,
			"byteLength":37476,
			"byteOffset":40032,
			"target":34962
		},
		{
			"buffer":0,
			"byteLength":24984,
			"byteOffset":77508,
			"target":34962
		},
		{
			"buffer":0,
			"byteLength":20988,
			"byteOffset":102492,
			"target":34963
		},
		{
			"buffer":0,
			"byteLength":5184,
			"byteOffset":123480,
			"target":34962
		},
		{
			"buffer":0,
			"byteLength":5184,
			"byteOffset":128664,
			"target":34962
		},
		{
			"buffer":0,
			"byteLength":3456,
			"byteOffset":133848,
			"target":34962
		},
		{
			"buffer":0,
			"byteLength":1224,
			"byteOffset":137304,
			"target":34963
		},
		{
			"buffer":0,
			"byteLength":6708,
			"byteOffset":138528,
			"target":34962
		},
		{
			"buffer":0,
			"byteLength":6708,
			"byteOffset":145236,
			"target":34962
		},
		{
			"buffer":0,
			"byteLength":4472,
			"byteOffset":151944,
			"target":34962
		},
		{
			"buffer":0,
			"byteLength":5760,
			"byteOffset":156416,
			"target":34963
		}
	],
	"buffers":[
		{
			"byteLength":162176,
			"uri":"data:application/octet-stream;base64,"
		}
	]
}
