# Blender 3.6.0
# www.blender.org
o Ground
v -12.093709 -0.196344 4.072241
v -0.370836 -0.196345 4.072241
v -0.370836 -0.196345 -3.743008
v -12.093709 -0.196344 -3.743007
v -12.093709 -0.274497 4.072241
v -0.370836 -0.274497 4.072241
v -0.370836 -0.274497 -3.743008
v -12.093709 -0.274497 -3.743007
v -12.093709 -0.196344 4.072241
v -0.370836 -0.196345 4.072241
v -0.370836 -0.196345 -3.743008
v -12.093709 -0.196344 -3.743007
v -12.120789 0.962336 4.210623
v -11.925407 0.962337 4.015241
v -11.925407 -0.276434 4.015241
v -12.120789 -0.276434 4.210623
v -0.202533 0.962351 4.210622
v -0.397914 0.962350 4.015241
v -0.397914 -0.276420 4.015241
v -0.202533 -0.276420 4.210622
v -0.202533 0.962351 -3.800009
v -0.397914 0.962351 -3.604628
v -0.397914 -0.276420 -3.604628
v -0.202533 -0.276419 -3.800009
v -12.120789 0.962337 -3.800009
v -11.925407 0.962337 -3.604627
v -11.925407 -0.276433 -3.604627
v -12.120789 -0.276434 -3.800009
v -12.107653 -0.337886 4.067056
v -0.384780 -0.337886 4.067055
v -0.384780 -0.337886 -3.748193
v -12.107653 -0.337886 -3.748193
v -12.107653 -0.416038 4.067056
v -0.384780 -0.416039 4.067055
v -0.384780 -0.416039 -3.748193
v -12.107653 -0.416038 -3.748193
v -12.107653 -0.337886 4.067056
v -0.384780 -0.337886 4.067055
v -0.384780 -0.337886 -3.748193
v -12.107653 -0.337886 -3.748193
v -12.104296 -0.468278 4.068466
v -0.381423 -0.468279 4.068466
v -0.381423 -0.468279 -3.746782
v -12.104296 -0.468278 -3.746782
v -12.104296 -0.546431 4.068466
v -0.381423 -0.546431 4.068466
v -0.381423 -0.546431 -3.746782
v -12.104296 -0.546431 -3.746782
v -12.104296 -0.468278 4.068466
v -0.381423 -0.468279 4.068466
v -0.381423 -0.468279 -3.746782
v -12.104296 -0.468278 -3.746782
v -12.131374 0.690402 4.206847
v -11.935993 0.690403 4.011466
v -11.935993 -0.548368 4.011466
v -12.131374 -0.548368 4.206847
v -0.213120 0.690417 4.206846
v -0.408501 0.690416 4.011466
v -0.408501 -0.548354 4.011466
v -0.213120 -0.548354 4.206846
v -0.213120 0.690417 -3.803784
v -0.408501 0.690417 -3.608402
v -0.408501 -0.548354 -3.608402
v -0.213120 -0.548353 -3.803784
v -12.131374 0.690403 -3.803783
v -11.935993 0.690403 -3.608402
v -11.935993 -0.548367 -3.608402
v -12.131374 -0.548368 -3.803783
vn -0.0000 0.0189 -0.9998
vn -0.0000 -0.5330 0.8461
vn -0.0000 -0.4779 -0.8784
vn -0.0000 0.0177 -0.9998
vn -0.9988 0.0485 -0.0000
vn -0.2798 -0.9601 -0.0000
vn 0.1792 -0.9838 -0.0000
vn -0.9988 0.0496 -0.0000
vn -0.0000 -0.0177 0.9998
vn -0.0000 0.4779 0.8784
vn -0.0000 0.5330 -0.8461
vn -0.0000 -0.0189 0.9998
vn 0.9988 -0.0496 -0.0000
vn -0.1792 0.9838 -0.0000
vn 0.2798 0.9601 -0.0000
vn 0.9988 -0.0485 -0.0000
vn 0.5443 -0.5918 -0.5945
vn 0.5473 -0.6123 0.5706
vn -0.6099 -0.5595 0.5612
vn -0.6053 -0.5416 -0.5833
vn -0.0000 -1.0000 -0.0000
vn -0.0000 -0.0000 1.0000
vn -0.0000 1.0000 -0.0000
vn -0.0000 -0.0000 -1.0000
vn 1.0000 -0.0000 -0.0000
vn -1.0000 -0.0000 -0.0000
vn 0.7254 -0.0182 -0.6880
vn -0.6974 0.0352 -0.7158
vn -0.5848 0.5677 -0.5794
vn 0.5687 0.5811 -0.5821
vn -0.0000 0.0123 -0.9999
vn -0.0000 0.0134 -0.9999
vn -0.0000 -0.5434 0.8395
vn -0.0000 -0.5587 -0.8294
vn 0.9994 -0.0357 -0.0000
vn 0.9993 -0.0367 -0.0000
vn -0.2717 0.9624 -0.0000
vn 0.2451 0.9695 -0.0000
vn -0.6870 0.0148 0.7265
vn 0.7147 -0.0342 0.6986
vn 0.5697 0.5869 0.5753
vn -0.5860 0.5733 0.5726
vn -0.0000 -0.0134 0.9999
vn -0.0000 -0.0123 0.9999
vn -0.0000 0.0055 1.0000
vn -0.0000 0.0054 1.0000
vn 0.9999 0.0128 -0.0000
vn 0.9999 0.0129 -0.0000
vn -0.0000 0.5587 0.8294
vn -0.0000 0.5434 -0.8395
vn -0.0000 -0.0054 -1.0000
vn -0.0000 -0.0055 -1.0000
vn -0.9993 0.0367 -0.0000
vn -0.9994 0.0357 -0.0000
vn -0.9999 -0.0129 -0.0000
vn -0.9999 -0.0128 -0.0000
vn -0.2451 -0.9695 -0.0000
vn 0.2717 -0.9624 -0.0000
s 1
f 5//1 1//2 2//3 6//4
f 6//5 2//6 3//7 7//8
f 7//9 3//10 4//11 8//12
f 8//13 4//14 1//15 5//16
f 9//17 12//18 11//19 10//20
f 17//21 13//21 14//21 18//21
f 18//22 14//22 15//22 19//22
f 19//23 15//23 16//23 20//23
f 20//24 16//24 13//24 17//24
f 21//21 17//21 18//21 22//21
f 22//25 18//25 19//25 23//25
f 23//23 19//23 20//23 24//23
f 24//26 20//26 17//26 21//26
f 25//21 21//21 22//21 26//21
f 26//24 22//24 23//24 27//24
f 27//23 23//23 24//23 28//23
f 28//22 24//22 21//22 25//22
f 13//21 25//21 26//21 14//21
f 14//26 26//26 27//26 15//26
f 15//23 27//23 28//23 16//23
f 16//25 28//25 25//25 13//25
f 37//27 38//28 50//29 49//30
f 33//31 34//32 46//33 45//34
f 36//35 33//36 45//37 48//38
f 39//39 40//40 52//41 51//42
f 30//43 29//44 41//45 42//46
f 40//40 37//27 49//30 52//41
f 31//35 30//36 42//47 43//48
f 35//43 36//44 48//49 47//50
f 38//28 39//39 51//42 50//29
f 32//31 31//32 43//51 44//52
f 29//53 32//54 44//55 41//56
f 34//53 35//54 47//57 46//58
f 7//9 8//12 36//44 35//43
f 3//7 2//6 30//36 31//35
f 12//18 9//17 37//27 40//40
f 2//3 1//2 29//44 30//43
f 11//19 12//18 40//40 39//39
f 8//13 5//16 33//36 36//35
f 5//1 6//4 34//32 33//31
f 9//17 10//20 38//28 37//27
f 6//5 7//8 35//54 34//53
f 1//15 4//14 32//54 29//53
f 4//11 3//10 31//32 32//31
f 10//20 11//19 39//39 38//28
f 45//34 46//33 42//46 41//45
f 46//58 47//57 43//48 42//47
f 47//50 48//49 44//52 43//51
f 48//38 45//37 41//56 44//55
f 49//30 50//29 51//42 52//41
f 57//23 58//23 54//23 53//23
f 58//24 59//24 55//24 54//24
f 59//21 60//21 56//21 55//21
f 60//22 57//22 53//22 56//22
f 61//23 62//23 58//23 57//23
f 62//26 63//26 59//26 58//26
f 63//21 64//21 60//21 59//21
f 64//25 61//25 57//25 60//25
f 65//23 66//23 62//23 61//23
f 66//22 67//22 63//22 62//22
f 67//21 68//21 64//21 63//21
f 68//24 65//24 61//24 64//24
f 53//23 54//23 66//23 65//23
f 54//25 55//25 67//25 66//25
f 55//21 56//21 68//21 67//21
f 56//26 53//26 65//26 68//26
